<svg width="74" height="18" viewBox="0 0 74 18" fill="none" xmlns="http://www.w3.org/2000/svg">
<path d="M18.4297 13.125C16.5156 14.4727 14.4518 15.4818 12.2383 16.1523C10.0573 16.888 7.80469 17.3372 5.48047 17.5C4.30859 17.6172 3.12044 17.4577 1.91602 17.0215C1.27148 16.7676 0.789714 16.2891 0.470703 15.5859C0.255859 14.8763 0.249349 14.209 0.451172 13.584C0.848307 12.3926 1.41471 11.3411 2.15039 10.4297C2.84701 9.49219 3.61198 8.61328 4.44531 7.79297C7.84375 4.47266 11.8509 2.26237 16.4668 1.16211C17.6061 0.895182 18.7747 0.77474 19.9727 0.800781C20.5716 0.807292 21.1836 0.934245 21.8086 1.18164C22.1341 1.30534 22.4206 1.54622 22.668 1.9043C22.7786 2.09961 22.8372 2.30469 22.8438 2.51953C22.8568 2.73438 22.834 2.92969 22.7754 3.10547C22.502 3.76953 22.1341 4.29362 21.6719 4.67773C21.2292 5.08138 20.7669 5.44596 20.2852 5.77148C19.3216 6.42253 18.3288 7.00521 17.3066 7.51953C17.209 7.5651 17.1113 7.57161 17.0137 7.53906C16.916 7.50651 16.8444 7.44466 16.7988 7.35352C16.7533 7.25586 16.7435 7.16146 16.7695 7.07031C16.8021 6.97266 16.8639 6.89779 16.9551 6.8457C17.9447 6.31185 18.8952 5.72591 19.8066 5.08789C20.2493 4.76888 20.666 4.42057 21.0566 4.04297C21.4538 3.65885 21.7305 3.25846 21.8867 2.8418C22.0039 2.50326 21.8444 2.24284 21.4082 2.06055C20.972 1.87826 20.4805 1.78385 19.9336 1.77734C18.8529 1.75781 17.7689 1.87826 16.6816 2.13867C12.2676 3.2194 8.4362 5.35807 5.1875 8.55469C4.39974 9.34245 3.67708 10.1823 3.01953 11.0742C2.32943 11.9661 1.80859 12.9004 1.45703 13.877C1.11849 14.9251 1.4082 15.6771 2.32617 16.1328C3.27018 16.5039 4.30859 16.6569 5.44141 16.5918C7.66146 16.4746 9.85221 16.0775 12.0137 15.4004C14.2012 14.8079 16.2389 13.9193 18.127 12.7344L18.1367 12.7246C18.1953 12.6855 18.2572 12.6725 18.3223 12.6855C18.3874 12.6986 18.4395 12.7311 18.4785 12.7832C18.5176 12.8418 18.5306 12.9036 18.5176 12.9688C18.5111 13.0339 18.4818 13.0859 18.4297 13.125ZM23.332 10.9961C23.4102 11.4128 23.3841 11.7839 23.2539 12.1094C23.1237 12.4349 22.9674 12.7279 22.7852 12.9883C22.4076 13.5156 21.9518 13.9681 21.418 14.3457C21.151 14.528 20.8581 14.6875 20.5391 14.8242C20.2201 14.9544 19.8685 15.013 19.4844 15C19.1003 15 18.7292 14.8568 18.3711 14.5703C18.0391 14.2383 17.8763 13.8574 17.8828 13.4277C17.8958 13.0306 17.9837 12.6725 18.1465 12.3535C18.3158 12.028 18.5241 11.748 18.7715 11.5137C19.0124 11.2728 19.276 11.0645 19.5625 10.8887C19.6276 10.8496 19.6927 10.8105 19.7578 10.7715C19.862 10.6999 19.9727 10.6445 20.0898 10.6055C20.2135 10.5599 20.3503 10.5599 20.5 10.6055C20.6172 10.6445 20.7018 10.7161 20.7539 10.8203C20.806 10.9245 20.8125 11.0352 20.7734 11.1523C20.7734 11.1654 20.7702 11.1751 20.7637 11.1816L20.7441 11.2402C20.6921 11.3574 20.627 11.4421 20.5488 11.4941C20.4772 11.5462 20.4023 11.5885 20.3242 11.6211C20.2396 11.6471 20.1615 11.6895 20.0898 11.748C19.862 11.8848 19.6569 12.041 19.4746 12.2168C19.0905 12.5879 18.8822 12.9883 18.8496 13.418C18.8366 13.6849 18.9408 13.8672 19.1621 13.9648C19.39 14.0625 19.6667 14.082 19.9922 14.0234C20.3177 13.9648 20.627 13.8249 20.9199 13.6035C21.265 13.3822 21.584 13.1055 21.877 12.7734C22.1699 12.4414 22.3783 12.0996 22.502 11.748L22.3066 11.6309L21.9258 11.3574C21.8607 11.2988 21.7956 11.2467 21.7305 11.2012C21.6393 11.1361 21.5482 11.0579 21.457 10.9668C21.3724 10.8691 21.291 10.7129 21.2129 10.498C21.1999 10.4004 21.2129 10.3158 21.252 10.2441C21.2975 10.1725 21.3529 10.1172 21.418 10.0781C21.4831 10.0326 21.5417 10.0033 21.5938 9.99023C21.6523 9.97721 21.6882 9.97721 21.7012 9.99023C21.7533 9.98372 21.7923 9.98372 21.8184 9.99023C21.8509 9.99023 21.8802 9.99349 21.9062 10C21.9323 10 21.9616 10.0033 21.9941 10.0098C22.1569 10.0293 22.3262 10.0716 22.502 10.1367C22.6842 10.1953 22.8535 10.2995 23.0098 10.4492C23.166 10.599 23.2734 10.7812 23.332 10.9961ZM22.8535 11.4258C22.86 11.4258 22.8633 11.4258 22.8633 11.4258C22.8633 11.4258 22.86 11.4258 22.8535 11.4258ZM22.2285 10.8301C22.235 10.8431 22.2448 10.8529 22.2578 10.8594C22.2773 10.8854 22.2969 10.9082 22.3164 10.9277L22.5801 11.1914C22.5475 11.0352 22.4303 10.9147 22.2285 10.8301ZM37.2383 12.9395C37.3034 12.9264 37.362 12.9395 37.4141 12.9785C37.4661 13.0111 37.4987 13.0566 37.5117 13.1152C37.5182 13.1803 37.502 13.2389 37.4629 13.291C37.4303 13.3431 37.3848 13.3757 37.3262 13.3887C37.1113 13.4277 36.8997 13.4701 36.6914 13.5156C35.8646 13.6849 35.0345 13.8314 34.2012 13.9551C33.3743 14.0788 32.5182 14.1374 31.6328 14.1309C31.5938 14.1243 31.5449 14.1178 31.4863 14.1113C31.3757 14.1178 31.2487 14.0951 31.1055 14.043C30.9622 13.9844 30.8288 13.8444 30.7051 13.623C30.666 13.4212 30.666 13.2585 30.7051 13.1348C30.7441 13.0046 30.793 12.8906 30.8516 12.793C30.8841 12.7474 30.9102 12.6986 30.9297 12.6465C31.138 12.334 31.3529 12.0443 31.5742 11.7773C31.6589 11.6797 31.737 11.582 31.8086 11.4844L31.8281 11.4648C31.8216 11.4648 31.8118 11.4648 31.7988 11.4648C31.7923 11.4648 31.7858 11.4648 31.7793 11.4648C31.3626 11.5169 30.9395 11.6243 30.5098 11.7871C29.6634 12.1191 28.8333 12.513 28.0195 12.9688C27.2057 13.4245 26.4017 13.903 25.6074 14.4043L25.002 14.7754L24.8359 14.873L24.7285 14.9316C24.735 14.9316 24.7318 14.9349 24.7188 14.9414C24.7057 14.9479 24.6862 14.9577 24.6602 14.9707C24.6276 14.9772 24.5951 14.9837 24.5625 14.9902C24.5234 14.9967 24.4876 15 24.4551 15C24.4551 14.9935 24.4551 14.9902 24.4551 14.9902C24.4486 14.9902 24.4421 14.9935 24.4355 15C24.429 15 24.4193 15 24.4062 15C24.3932 15 24.3737 14.9967 24.3477 14.9902C24.3216 14.9772 24.2891 14.9609 24.25 14.9414C24.2109 14.9154 24.1621 14.8763 24.1035 14.8242C24.0514 14.7526 24.0189 14.6875 24.0059 14.6289C23.9863 14.5638 23.9798 14.5052 23.9863 14.4531C23.9863 14.401 23.9961 14.3555 24.0156 14.3164C24.0286 14.2773 24.0449 14.248 24.0645 14.2285C24.0775 14.2025 24.0872 14.1862 24.0938 14.1797C24.1003 14.1732 24.097 14.1764 24.084 14.1895L24.1035 14.1699L24.3184 13.8867L25.1777 12.7539L26.0371 11.6211L26.4668 11.0547C26.5254 11.0026 26.5742 10.9408 26.6133 10.8691C26.6458 10.7975 26.6914 10.7357 26.75 10.6836C26.8151 10.6315 26.9128 10.6055 27.043 10.6055C27.3294 10.638 27.5117 10.791 27.5898 11.0645V11.084C27.6224 11.2142 27.6191 11.3151 27.5801 11.3867C27.541 11.4583 27.4922 11.5202 27.4336 11.5723C27.3815 11.6243 27.3359 11.6862 27.2969 11.7578L26.8574 12.3047L26.4473 12.8125C27.6387 12.1029 28.8984 11.4941 30.2266 10.9863C30.6888 10.8171 31.1836 10.7031 31.7109 10.6445C31.8411 10.6315 31.9779 10.6315 32.1211 10.6445C32.1927 10.6445 32.2676 10.6543 32.3457 10.6738C32.3522 10.6803 32.3587 10.6836 32.3652 10.6836C32.3783 10.6836 32.3913 10.6836 32.4043 10.6836C32.4173 10.6836 32.4368 10.6868 32.4629 10.6934C32.4954 10.6999 32.5345 10.7194 32.5801 10.752C32.6257 10.778 32.6842 10.8236 32.7559 10.8887C32.8275 11.0254 32.86 11.1361 32.8535 11.2207C32.847 11.2988 32.8307 11.3607 32.8047 11.4062C32.7982 11.4258 32.7917 11.4453 32.7852 11.4648C32.7461 11.5495 32.7038 11.6178 32.6582 11.6699L32.4238 11.9824C32.3262 12.1061 32.2188 12.2331 32.1016 12.3633C31.9258 12.5716 31.7663 12.7702 31.623 12.959C31.4863 13.1413 31.4115 13.2812 31.3984 13.3789C31.3919 13.4701 31.4928 13.4863 31.7012 13.4277C32.5345 13.4668 33.3874 13.4408 34.2598 13.3496C35.1322 13.252 36.0013 13.1315 36.8672 12.9883C36.9909 12.9688 37.1146 12.9525 37.2383 12.9395ZM24.875 14.7852L24.8652 14.7949C24.8522 14.8079 24.849 14.8145 24.8555 14.8145C24.8555 14.8079 24.862 14.7982 24.875 14.7852ZM50.3828 6.45508C50.3893 6.50716 50.3796 6.55599 50.3535 6.60156C50.334 6.64062 50.2982 6.66992 50.2461 6.68945C50.207 6.69596 50.1712 6.70573 50.1387 6.71875C50.1191 6.72526 50.1061 6.72852 50.0996 6.72852C50.0931 6.72852 50.0866 6.72852 50.0801 6.72852L50.0312 6.74805C50.0182 6.74805 50.0085 6.74805 50.002 6.74805C49.9759 6.75456 49.9531 6.76107 49.9336 6.76758L49.8359 6.77734L49.748 6.79688L49.6504 6.81641C49.6309 6.81641 49.6081 6.81966 49.582 6.82617C49.543 6.83268 49.5039 6.83594 49.4648 6.83594C49.2109 6.86849 48.9603 6.89779 48.7129 6.92383C48.2181 6.97591 47.7201 7.02148 47.2188 7.06055C46.724 7.09961 46.2292 7.13542 45.7344 7.16797C45.3372 7.19401 44.9434 7.22005 44.5527 7.24609C44.4486 7.2526 44.3444 7.25911 44.2402 7.26562L43.4883 7.30469L42.7461 7.34375L41.877 7.38281C40.8613 8.74349 39.9076 10.1432 39.0156 11.582C38.7747 11.9792 38.5469 12.3796 38.332 12.7832C38.1107 13.1868 37.9154 13.597 37.7461 14.0137C37.6615 14.222 37.5898 14.4303 37.5312 14.6387C37.5052 14.7428 37.4857 14.8438 37.4727 14.9414C37.4596 15.0391 37.4596 15.1237 37.4727 15.1953C37.4727 15.2279 37.4792 15.2507 37.4922 15.2637C37.4922 15.2702 37.4922 15.2767 37.4922 15.2832C37.4987 15.2897 37.502 15.293 37.502 15.293C37.5085 15.293 37.5117 15.293 37.5117 15.293C37.5182 15.2995 37.528 15.306 37.541 15.3125C37.5605 15.319 37.5866 15.3223 37.6191 15.3223C37.6973 15.3223 37.7852 15.3092 37.8828 15.2832C37.9805 15.2572 38.0814 15.2214 38.1855 15.1758C38.3809 15.0977 38.5794 15 38.7812 14.8828C38.9766 14.7786 39.1719 14.6615 39.3672 14.5312C39.7513 14.2839 40.1289 14.0202 40.5 13.7402C40.8776 13.4668 41.2454 13.1803 41.6035 12.8809C41.9681 12.5944 42.3294 12.2982 42.6875 11.9922C42.7331 11.9596 42.7819 11.9466 42.834 11.9531C42.8926 11.9531 42.9414 11.9759 42.9805 12.0215C43.013 12.0671 43.026 12.1159 43.0195 12.168C43.0195 12.2201 43 12.2656 42.9609 12.3047C42.6159 12.6237 42.2676 12.9395 41.916 13.252C41.5579 13.5645 41.1966 13.8672 40.832 14.1602C40.4609 14.4596 40.0801 14.7461 39.6895 15.0195C39.4941 15.1562 39.2923 15.2865 39.084 15.4102C38.8757 15.5404 38.6576 15.6576 38.4297 15.7617C38.3125 15.8138 38.1921 15.8594 38.0684 15.8984C37.9382 15.944 37.7949 15.9701 37.6387 15.9766C37.554 15.9766 37.4661 15.9668 37.375 15.9473C37.2773 15.9277 37.1829 15.8854 37.0918 15.8203C37.0007 15.7487 36.9323 15.6641 36.8867 15.5664C36.8477 15.4818 36.8184 15.3971 36.7988 15.3125C36.7728 15.1497 36.7695 15 36.7891 14.8633C36.8021 14.7266 36.8249 14.5964 36.8574 14.4727C36.916 14.2253 36.9876 13.9876 37.0723 13.7598C37.248 13.304 37.4434 12.8613 37.6582 12.4316C37.873 12.0085 38.1009 11.5918 38.3418 11.1816C38.5762 10.7715 38.8171 10.3646 39.0645 9.96094C39.3184 9.55729 39.5755 9.16016 39.8359 8.76953C40.1354 8.32031 40.4414 7.87435 40.7539 7.43164L39.7676 7.4707L39.0156 7.5L38.6445 7.51953L38.459 7.5293C38.4525 7.5293 38.4492 7.5293 38.4492 7.5293C38.4362 7.5293 38.4232 7.5293 38.4102 7.5293C38.3971 7.5293 38.3841 7.52279 38.3711 7.50977C38.3516 7.49674 38.3353 7.48047 38.3223 7.46094C38.3027 7.44141 38.2865 7.41211 38.2734 7.37305L38.2637 7.36328C38.1855 7.14193 38.179 6.92708 38.2441 6.71875C38.2637 6.67969 38.2799 6.64714 38.293 6.62109C38.306 6.60156 38.3223 6.58529 38.3418 6.57227C38.3548 6.55924 38.3678 6.55273 38.3809 6.55273C38.3939 6.55273 38.4069 6.55273 38.4199 6.55273C38.4199 6.55273 38.4232 6.55273 38.4297 6.55273H38.6152L38.9961 6.54297L39.7383 6.5332L41.2324 6.51367L41.4082 6.50391C41.4147 6.4974 41.4212 6.48763 41.4277 6.47461C41.4342 6.4681 41.444 6.45833 41.457 6.44531C42.0104 5.68359 42.5736 4.93164 43.1465 4.18945C43.4395 3.81185 43.7324 3.44076 44.0254 3.07617L44.4648 2.51953L44.6895 2.24609C44.722 2.20052 44.7643 2.16146 44.8164 2.12891C44.8685 2.09635 44.9401 2.08008 45.0312 2.08008C45.2982 2.10612 45.4674 2.24284 45.5391 2.49023V2.5C45.5586 2.59115 45.5553 2.66602 45.5293 2.72461C45.5098 2.77669 45.4805 2.82552 45.4414 2.87109L45.2168 3.13477L44.7676 3.68164C44.4746 4.03971 44.1816 4.40104 43.8887 4.76562C43.4395 5.33854 42.9935 5.91471 42.5508 6.49414L44.2109 6.47461L45.7051 6.45508C46.1999 6.44857 46.6947 6.4388 47.1895 6.42578C47.6842 6.41927 48.179 6.40951 48.6738 6.39648C48.9212 6.38997 49.1686 6.38021 49.416 6.36719C49.4551 6.36068 49.4941 6.35742 49.5332 6.35742C49.5592 6.35742 49.582 6.35742 49.6016 6.35742L49.6895 6.34766L49.7773 6.33789L49.875 6.32812C49.888 6.32812 49.9043 6.32812 49.9238 6.32812C49.9368 6.32812 49.9466 6.32487 49.9531 6.31836H50.002C50.002 6.31836 50.0052 6.31836 50.0117 6.31836C50.0247 6.31185 50.0345 6.30859 50.041 6.30859C50.0605 6.30208 50.0833 6.29883 50.1094 6.29883L50.1484 6.28906C50.207 6.28255 50.2559 6.29557 50.2949 6.32812C50.3405 6.35417 50.3698 6.39648 50.3828 6.45508ZM53.5371 13.1055C53.5501 13.151 53.5469 13.1934 53.5273 13.2324C53.5143 13.2715 53.485 13.3008 53.4395 13.3203C53.0098 13.5026 52.5736 13.6751 52.1309 13.8379C51.6882 14.0072 51.2422 14.1667 50.793 14.3164C50.3438 14.4661 49.8848 14.5996 49.416 14.7168C49.1882 14.7689 48.9538 14.8177 48.7129 14.8633C48.472 14.9023 48.2279 14.9284 47.9805 14.9414C47.8503 14.9414 47.7201 14.9349 47.5898 14.9219C47.4596 14.9089 47.3229 14.873 47.1797 14.8145C47.1081 14.7884 47.0397 14.7493 46.9746 14.6973C46.903 14.6452 46.8411 14.5768 46.7891 14.4922C46.7435 14.4141 46.7142 14.3294 46.7012 14.2383C46.6882 14.1536 46.6849 14.0723 46.6914 13.9941C46.7109 13.8444 46.7467 13.7077 46.7988 13.584C46.7988 13.5775 46.7988 13.5742 46.7988 13.5742C46.7923 13.5807 46.7826 13.5905 46.7695 13.6035C46.737 13.623 46.7077 13.6426 46.6816 13.6621C46.3952 13.8509 46.1022 14.0332 45.8027 14.209C45.5033 14.3783 45.1908 14.5345 44.8652 14.6777C44.7025 14.7493 44.5332 14.8112 44.3574 14.8633C44.1816 14.9154 43.9961 14.9544 43.8008 14.9805C43.6055 15.013 43.4004 15.0065 43.1855 14.9609C43.0749 14.9414 42.9674 14.9056 42.8633 14.8535C42.7526 14.7949 42.6549 14.7233 42.5703 14.6387C42.401 14.4629 42.2871 14.2741 42.2285 14.0723C42.196 13.9681 42.1699 13.8672 42.1504 13.7695C42.1439 13.737 42.1374 13.7012 42.1309 13.6621C42.1309 13.6491 42.1309 13.6328 42.1309 13.6133C42.1309 13.6003 42.1276 13.5872 42.1211 13.5742C42.1211 13.5352 42.1211 13.4993 42.1211 13.4668C42.1211 13.252 42.1569 13.0436 42.2285 12.8418C42.3001 12.6465 42.3945 12.4674 42.5117 12.3047C42.6354 12.1419 42.7689 11.9987 42.9121 11.875C43.0618 11.7513 43.2148 11.6406 43.3711 11.543C43.6836 11.3542 44.0091 11.1979 44.3477 11.0742C44.6797 10.9505 45.0182 10.8496 45.3633 10.7715C45.7083 10.6934 46.0566 10.638 46.4082 10.6055C46.7598 10.5664 47.1146 10.5534 47.4727 10.5664C47.6484 10.5664 47.8275 10.5794 48.0098 10.6055C48.0228 10.6055 48.0358 10.6055 48.0488 10.6055C48.0814 10.612 48.1139 10.6185 48.1465 10.625C48.1921 10.625 48.2344 10.6348 48.2734 10.6543C48.319 10.6673 48.3646 10.6868 48.4102 10.7129C48.4492 10.7454 48.485 10.7845 48.5176 10.8301C48.5762 10.9082 48.5957 10.9928 48.5762 11.084C48.5632 11.1751 48.5176 11.25 48.4395 11.3086C48.4329 11.3086 48.4264 11.3118 48.4199 11.3184L48.3906 11.3379C48.3451 11.3639 48.2995 11.3802 48.2539 11.3867C48.2148 11.3997 48.1758 11.4062 48.1367 11.4062C48.0977 11.4062 48.0586 11.403 48.0195 11.3965C48 11.39 47.9772 11.3867 47.9512 11.3867C47.9382 11.3802 47.9251 11.377 47.9121 11.377C47.7559 11.3574 47.5996 11.3444 47.4434 11.3379C47.1243 11.3249 46.8021 11.3346 46.4766 11.3672C45.832 11.4258 45.207 11.5625 44.6016 11.7773C44.3021 11.8815 44.0221 12.015 43.7617 12.1777C43.4948 12.334 43.2734 12.5228 43.0977 12.7441C42.9284 12.9655 42.8438 13.2031 42.8438 13.457C42.8438 13.4766 42.8438 13.4961 42.8438 13.5156C42.8438 13.5286 42.8438 13.5417 42.8438 13.5547C42.8438 13.5677 42.8438 13.5807 42.8438 13.5938C42.8503 13.6133 42.8535 13.6328 42.8535 13.6523C42.8665 13.7174 42.8828 13.7826 42.9023 13.8477C42.9414 13.9714 42.9967 14.069 43.0684 14.1406C43.1335 14.2057 43.2214 14.2513 43.332 14.2773C43.4492 14.3034 43.5794 14.3066 43.7227 14.2871C44.0091 14.248 44.3021 14.1667 44.6016 14.043C44.8945 13.9193 45.1842 13.776 45.4707 13.6133C45.7572 13.457 46.0404 13.2878 46.3203 13.1055C46.8737 12.7409 47.4108 12.3503 47.9316 11.9336C48.0423 11.849 48.1497 11.7643 48.2539 11.6797C48.293 11.6406 48.3353 11.6016 48.3809 11.5625C48.7259 11.2305 49.084 10.9147 49.4551 10.6152C49.5267 10.5632 49.6016 10.5404 49.6797 10.5469C49.7643 10.5534 49.8327 10.5892 49.8848 10.6543C49.9564 10.7585 49.9694 10.8626 49.9238 10.9668C49.9238 10.9798 49.9206 10.9896 49.9141 10.9961C49.9141 11.0026 49.9108 11.0091 49.9043 11.0156C49.9043 11.0156 49.901 11.0189 49.8945 11.0254L49.8848 11.0449C49.8783 11.0579 49.8717 11.0677 49.8652 11.0742C49.8522 11.0872 49.8424 11.097 49.8359 11.1035C49.8164 11.123 49.8001 11.1426 49.7871 11.1621C49.7546 11.1947 49.722 11.224 49.6895 11.25C49.6243 11.3151 49.5592 11.377 49.4941 11.4355C49.3704 11.5527 49.2435 11.6667 49.1133 11.7773C48.8594 11.9987 48.599 12.2168 48.332 12.4316C48.306 12.4512 48.2832 12.4707 48.2637 12.4902C48.2507 12.4967 48.2376 12.5065 48.2246 12.5195C48.0879 12.6628 47.9544 12.8125 47.8242 12.9688C47.681 13.1445 47.5508 13.3236 47.4336 13.5059C47.3815 13.597 47.3327 13.6882 47.2871 13.7793C47.248 13.877 47.2253 13.9681 47.2188 14.0527C47.2122 14.0918 47.2122 14.1276 47.2188 14.1602C47.2188 14.1862 47.2253 14.209 47.2383 14.2285C47.2513 14.2546 47.2708 14.2773 47.2969 14.2969C47.3164 14.3164 47.3457 14.3359 47.3848 14.3555C47.4629 14.388 47.554 14.4108 47.6582 14.4238C47.7559 14.4368 47.86 14.4434 47.9707 14.4434C48.1921 14.4434 48.4167 14.4271 48.6445 14.3945C48.8659 14.362 49.0905 14.3197 49.3184 14.2676C49.7676 14.1699 50.2168 14.0527 50.666 13.916C51.1152 13.7858 51.5612 13.6426 52.0039 13.4863C52.4466 13.3366 52.8861 13.1771 53.3223 13.0078C53.3678 12.9948 53.4102 12.998 53.4492 13.0176C53.4883 13.0371 53.5176 13.0664 53.5371 13.1055ZM61.2422 12.3926C61.3008 12.3665 61.3561 12.3665 61.4082 12.3926C61.4603 12.4186 61.4993 12.4577 61.5254 12.5098C61.5449 12.5684 61.5417 12.6237 61.5156 12.6758C61.4961 12.7214 61.4603 12.7572 61.4082 12.7832C60.1126 13.3757 58.7845 13.903 57.4238 14.3652C56.7402 14.5931 56.0371 14.7721 55.3145 14.9023C54.9499 14.974 54.569 15.0065 54.1719 15C54.1393 14.9935 54.1068 14.9902 54.0742 14.9902C53.8919 14.9837 53.6934 14.9479 53.4785 14.8828C53.2702 14.8177 53.0781 14.6615 52.9023 14.4141C52.7786 14.1406 52.7396 13.8965 52.7852 13.6816C52.8242 13.4603 52.8861 13.265 52.9707 13.0957C52.9837 13.0697 52.9967 13.0404 53.0098 13.0078C53.1921 12.6562 53.4102 12.334 53.6641 12.041C54.1914 11.4551 54.8132 11.0026 55.5293 10.6836C56.2259 10.3516 56.9876 10.1888 57.8145 10.1953C58.0163 10.1953 58.2474 10.2474 58.5078 10.3516C58.651 10.3971 58.7943 10.5241 58.9375 10.7324C58.9961 10.8561 59.0221 10.9831 59.0156 11.1133C59.0091 11.2435 58.9831 11.3477 58.9375 11.4258C58.8659 11.5625 58.791 11.6699 58.7129 11.748C58.6413 11.8262 58.5664 11.8913 58.4883 11.9434C58.4688 11.9694 58.446 11.9922 58.4199 12.0117C58.3743 12.0378 58.3288 12.0671 58.2832 12.0996C58.2246 12.1517 58.1595 12.1908 58.0879 12.2168C58.0163 12.2363 57.9284 12.2233 57.8242 12.1777C57.6029 12.054 57.4954 11.8717 57.502 11.6309L57.5117 11.5723C57.5182 11.4681 57.541 11.3965 57.5801 11.3574C57.6191 11.3118 57.6647 11.2793 57.7168 11.2598C57.7559 11.2402 57.7917 11.2174 57.8242 11.1914C57.8307 11.1849 57.834 11.1816 57.834 11.1816C57.834 11.1816 57.8372 11.1816 57.8438 11.1816C57.8307 11.1751 57.8177 11.1719 57.8047 11.1719C57.7852 11.1719 57.7656 11.1686 57.7461 11.1621C57.1276 11.1426 56.5091 11.263 55.8906 11.5234C55.2852 11.7773 54.7578 12.1419 54.3086 12.6172C54.1719 12.7604 54.0417 12.9297 53.918 13.125C53.7943 13.3138 53.6999 13.4928 53.6348 13.6621C53.5762 13.8314 53.5664 13.9486 53.6055 14.0137C53.6706 14.1309 53.8691 14.2025 54.2012 14.2285C54.5397 14.248 54.8717 14.2318 55.1973 14.1797C55.8743 14.0755 56.5514 13.9225 57.2285 13.7207C58.5827 13.3431 59.9206 12.9004 61.2422 12.3926ZM73.8594 6.45508C73.8659 6.50716 73.8561 6.55599 73.8301 6.60156C73.8105 6.64062 73.7747 6.66992 73.7227 6.68945C73.6836 6.69596 73.6478 6.70573 73.6152 6.71875C73.5957 6.72526 73.5827 6.72852 73.5762 6.72852C73.5697 6.72852 73.5632 6.72852 73.5566 6.72852L73.5078 6.74805C73.4948 6.74805 73.485 6.74805 73.4785 6.74805C73.4525 6.75456 73.4297 6.76107 73.4102 6.76758L73.3125 6.77734L73.2246 6.79688L73.127 6.81641C73.1074 6.81641 73.0846 6.81966 73.0586 6.82617C73.0195 6.83268 72.9805 6.83594 72.9414 6.83594C72.6875 6.86849 72.4368 6.89779 72.1895 6.92383C71.6947 6.97591 71.1966 7.02148 70.6953 7.06055C70.2005 7.09961 69.7057 7.13542 69.2109 7.16797C68.8138 7.19401 68.4199 7.22005 68.0293 7.24609C67.9251 7.2526 67.821 7.25911 67.7168 7.26562L66.9648 7.30469L66.2227 7.34375L65.3535 7.38281C64.3379 8.74349 63.3841 10.1432 62.4922 11.582C62.2513 11.9792 62.0234 12.3796 61.8086 12.7832C61.5872 13.1868 61.3919 13.597 61.2227 14.0137C61.138 14.222 61.0664 14.4303 61.0078 14.6387C60.9818 14.7428 60.9622 14.8438 60.9492 14.9414C60.9362 15.0391 60.9362 15.1237 60.9492 15.1953C60.9492 15.2279 60.9557 15.2507 60.9688 15.2637C60.9688 15.2702 60.9688 15.2767 60.9688 15.2832C60.9753 15.2897 60.9785 15.293 60.9785 15.293C60.985 15.293 60.9883 15.293 60.9883 15.293C60.9948 15.2995 61.0046 15.306 61.0176 15.3125C61.0371 15.319 61.0632 15.3223 61.0957 15.3223C61.1738 15.3223 61.2617 15.3092 61.3594 15.2832C61.457 15.2572 61.5579 15.2214 61.6621 15.1758C61.8574 15.0977 62.056 15 62.2578 14.8828C62.4531 14.7786 62.6484 14.6615 62.8438 14.5312C63.2279 14.2839 63.6055 14.0202 63.9766 13.7402C64.3542 13.4668 64.722 13.1803 65.0801 12.8809C65.4447 12.5944 65.806 12.2982 66.1641 11.9922C66.2096 11.9596 66.2585 11.9466 66.3105 11.9531C66.3691 11.9531 66.418 11.9759 66.457 12.0215C66.4896 12.0671 66.5026 12.1159 66.4961 12.168C66.4961 12.2201 66.4766 12.2656 66.4375 12.3047C66.0924 12.6237 65.7441 12.9395 65.3926 13.252C65.0345 13.5645 64.6732 13.8672 64.3086 14.1602C63.9375 14.4596 63.5566 14.7461 63.166 15.0195C62.9707 15.1562 62.7689 15.2865 62.5605 15.4102C62.3522 15.5404 62.1341 15.6576 61.9062 15.7617C61.7891 15.8138 61.6686 15.8594 61.5449 15.8984C61.4147 15.944 61.2715 15.9701 61.1152 15.9766C61.0306 15.9766 60.9427 15.9668 60.8516 15.9473C60.7539 15.9277 60.6595 15.8854 60.5684 15.8203C60.4772 15.7487 60.4089 15.6641 60.3633 15.5664C60.3242 15.4818 60.2949 15.3971 60.2754 15.3125C60.2493 15.1497 60.2461 15 60.2656 14.8633C60.2786 14.7266 60.3014 14.5964 60.334 14.4727C60.3926 14.2253 60.4642 13.9876 60.5488 13.7598C60.7246 13.304 60.9199 12.8613 61.1348 12.4316C61.3496 12.0085 61.5775 11.5918 61.8184 11.1816C62.0527 10.7715 62.2936 10.3646 62.541 9.96094C62.7949 9.55729 63.0521 9.16016 63.3125 8.76953C63.612 8.32031 63.918 7.87435 64.2305 7.43164L63.2441 7.4707L62.4922 7.5L62.1211 7.51953L61.9355 7.5293C61.929 7.5293 61.9258 7.5293 61.9258 7.5293C61.9128 7.5293 61.8997 7.5293 61.8867 7.5293C61.8737 7.5293 61.8607 7.52279 61.8477 7.50977C61.8281 7.49674 61.8118 7.48047 61.7988 7.46094C61.7793 7.44141 61.763 7.41211 61.75 7.37305L61.7402 7.36328C61.6621 7.14193 61.6556 6.92708 61.7207 6.71875C61.7402 6.67969 61.7565 6.64714 61.7695 6.62109C61.7826 6.60156 61.7988 6.58529 61.8184 6.57227C61.8314 6.55924 61.8444 6.55273 61.8574 6.55273C61.8704 6.55273 61.8835 6.55273 61.8965 6.55273C61.8965 6.55273 61.8997 6.55273 61.9062 6.55273H62.0918L62.4727 6.54297L63.2148 6.5332L64.709 6.51367L64.8848 6.50391C64.8913 6.4974 64.8978 6.48763 64.9043 6.47461C64.9108 6.4681 64.9206 6.45833 64.9336 6.44531C65.487 5.68359 66.0501 4.93164 66.623 4.18945C66.916 3.81185 67.209 3.44076 67.502 3.07617L67.9414 2.51953L68.166 2.24609C68.1986 2.20052 68.2409 2.16146 68.293 2.12891C68.3451 2.09635 68.4167 2.08008 68.5078 2.08008C68.7747 2.10612 68.944 2.24284 69.0156 2.49023V2.5C69.0352 2.59115 69.0319 2.66602 69.0059 2.72461C68.9863 2.77669 68.957 2.82552 68.918 2.87109L68.6934 3.13477L68.2441 3.68164C67.9512 4.03971 67.6582 4.40104 67.3652 4.76562C66.916 5.33854 66.4701 5.91471 66.0273 6.49414L67.6875 6.47461L69.1816 6.45508C69.6764 6.44857 70.1712 6.4388 70.666 6.42578C71.1608 6.41927 71.6556 6.40951 72.1504 6.39648C72.3978 6.38997 72.6452 6.38021 72.8926 6.36719C72.9316 6.36068 72.9707 6.35742 73.0098 6.35742C73.0358 6.35742 73.0586 6.35742 73.0781 6.35742L73.166 6.34766L73.2539 6.33789L73.3516 6.32812C73.3646 6.32812 73.3809 6.32812 73.4004 6.32812C73.4134 6.32812 73.4232 6.32487 73.4297 6.31836H73.4785C73.4785 6.31836 73.4818 6.31836 73.4883 6.31836C73.5013 6.31185 73.5111 6.30859 73.5176 6.30859C73.5371 6.30208 73.5599 6.29883 73.5859 6.29883L73.625 6.28906C73.6836 6.28255 73.7324 6.29557 73.7715 6.32812C73.8171 6.35417 73.8464 6.39648 73.8594 6.45508Z" fill="black"/>
</svg>
